<svg width="39" height="39" viewBox="0 0 39 39" fill="none" xmlns="http://www.w3.org/2000/svg">
<path d="M20.2203 0.506212C23.3159 0.585762 26.4251 1.41534 29.2936 3.06992C38.4692 8.36787 41.628 20.1318 36.3303 29.3075C31.0324 38.4831 19.2684 41.6239 10.0928 36.3256C0.917176 31.0277 -2.2236 19.2818 3.07464 10.1067C6.71568 3.79722 13.4116 0.331195 20.2209 0.506329L20.2203 0.506212ZM20.184 1.66989C17.3179 1.59489 14.4656 2.20173 11.8927 3.43357C11.1268 5.67459 10.9904 8.09057 10.9654 9.23383C10.9222 11.2271 11.8472 12.4885 12.7109 13.8886C13.9473 15.8909 16.4838 17.0387 16.7838 18.5433C17.3656 21.4525 17.627 25.5324 20.8567 25.5254C22.2499 25.5254 23.0908 24.5276 23.7659 23.198C25.4364 19.9047 24.35 17.4296 24.9296 14.4704C25.5023 11.5521 28.4206 10.7293 28.4206 8.07014C28.4206 6.51779 27.8774 4.74044 27.1115 3.26996C24.875 2.25854 22.5226 1.73128 20.184 1.66989ZM8.67457 26.6891C6.98816 26.7913 4.86304 27.1573 3.52888 27.6891C4.89027 30.4529 6.96995 32.8961 9.69291 34.7073C10.4043 34.3459 11.3066 33.8118 12.1657 33.0891C15.35 30.2481 14.0475 26.6891 8.67457 26.6891Z" fill="#28293D"/>
</svg>
