<svg width="23" height="44" viewBox="0 0 23 44" fill="none" xmlns="http://www.w3.org/2000/svg">
<path d="M7.7728 24.25L6.36986 22.174C4.29403 19.107 4.76103 16.0136 5.27951 14.3326C3.82699 14.3853 2.96921 13.5447 2.96921 12.1306C2.96921 11.2017 2.96921 10.0471 4.04428 10.0471C4.2654 10.0471 4.46555 10.1092 4.70003 10.1787C5.01074 10.2746 5.3977 10.3931 5.94477 10.3931C7.05225 10.3931 7.76519 10.0415 7.76519 9.49425C7.76519 9.15578 7.34201 8.21558 6.91122 8.21558C6.75492 8.21558 6.54142 8.32841 6.30695 8.53338C5.22808 9.48302 4.18726 9.68231 3.50297 9.68231C2.82819 9.68231 2.38212 9.49615 2.29824 9.45854L2.06187 9.28742C1.267 8.41678 1.00203 6.60217 1.50909 5.47952C1.81598 4.79503 2.39736 4.40202 3.10074 4.40202L3.26085 4.40578C4.3531 4.40578 5.36337 3.48622 7.199 1.82018L7.57452 1.47793C8.51047 0.627989 9.35677 0.25 10.3175 0.25C10.8246 0.25 11.2916 0.353422 11.7834 0.460609C12.4257 0.601642 13.0929 0.75396 13.9698 0.691903C16.8385 0.496338 19.1277 1.42713 19.2155 1.46478L20.75 2.09473L17.5571 3.54829C17.7478 4.1237 17.7878 4.82889 17.6677 5.61303C17.3398 7.77366 15.7044 10.9497 12.092 13.3851C7.6068 16.4069 7.7002 21.7021 7.70401 21.7551L7.7728 24.25ZM7.93292 12.0722L7.07514 13.7195C7.01033 13.8474 5.7656 16.2957 6.55666 19.1708C7.03511 17.1004 8.24171 14.2346 11.2707 12.1964C14.4959 10.0226 15.9446 7.26019 16.2246 5.40057C16.3447 4.6277 16.2589 3.97334 15.9997 3.65552L15.4183 2.93907L16.8251 2.29973C16.0569 2.1587 15.1057 2.0628 14.0669 2.12861C12.988 2.19819 12.1683 2.01955 11.4688 1.86535C11.0361 1.77133 10.6663 1.68859 10.3193 1.68859C9.9114 1.68859 9.38527 1.79013 8.5599 2.53853L8.1863 2.87889C6.15049 4.72926 4.92292 5.84624 3.25867 5.84624L3.09855 5.84248C3.02993 5.84248 2.94034 5.84248 2.83931 6.06437C2.57435 6.64729 2.73447 7.70221 3.04518 8.19491C3.14811 8.22124 3.30633 8.24757 3.50075 8.24757C4.12595 8.24757 4.74549 7.9843 5.33449 7.46343C5.84916 7.01024 6.37906 6.78082 6.90901 6.78082C8.40535 6.78082 9.2193 8.57665 9.2193 9.49803C9.2193 10.5755 8.36343 11.8336 5.94066 11.8336C5.28301 11.8336 4.78741 11.7113 4.43094 11.606C4.42522 11.7358 4.42141 11.9088 4.42141 12.1326C4.42141 12.7117 4.6044 12.8998 5.17246 12.8998C5.66805 12.8998 6.16365 12.7193 6.16941 12.7174L7.93292 12.0722Z" fill="#28293D"/>
<path d="M10.0783 40C9.27171 40 6.18412 39.8546 3.99653 37.7846C2.5393 36.4021 1.79739 34.4737 1.79739 32.0541C1.79739 29.0549 2.30344 27.3287 2.6725 26.0669C3.23178 24.1594 3.48483 23.2887 1.20197 19.7152L0.5 18.6198L1.80694 18.6066C1.92679 18.6066 5.25593 18.5896 6.84991 20.312L5.77888 21.2884C5.17962 20.6406 4.09339 20.3158 3.17451 20.1647C4.90188 23.1847 4.66787 24.4255 4.07245 26.4671C3.7091 27.7099 3.25443 29.2567 3.25443 32.052C3.25443 34.0616 3.84224 35.6368 5.00079 36.736C7.04584 38.6718 10.202 38.551 10.242 38.551C13.6206 38.5491 16.0958 37.4537 17.6367 35.2892C20.574 31.1624 19.4725 24.0725 18.4776 21.2827C17.846 19.5168 17.8936 18.2967 18.6108 17.5582C19.1054 17.052 19.7503 16.9331 20.321 16.9501C20.1897 14.7063 19.5372 13.4806 18.9037 12.2926C18.5803 11.6882 18.2759 11.1178 18.0476 10.4417C17.7432 9.54081 18.0381 9.09889 18.3368 8.88353C18.5327 8.74188 19.0673 8.36416 20.7167 9.33493C20.203 4.96074 17.4331 3.03829 17.3019 2.94932L18.1142 1.75C18.2816 1.86332 22.25 4.57167 22.25 10.7533V12.2038L21.0858 11.3293C20.5797 10.9497 20.0033 10.587 19.5696 10.3623C19.7427 10.7854 19.9595 11.1914 20.1859 11.6164C20.9412 13.0329 21.7972 14.6364 21.7972 17.7922V18.7762L20.8518 18.4797C20.5816 18.4004 19.9063 18.304 19.6571 18.5609C19.5524 18.6686 19.2595 19.1483 19.8492 20.799C21.1238 24.3742 21.9742 31.6966 18.8257 36.1202C16.9956 38.6888 14.1192 39.9919 10.2743 39.9919C10.2591 39.9976 10.1906 39.9995 10.0784 39.9995L10.0783 40Z" fill="#28293D"/>
<path d="M10.9984 28L9.63949 26.1733C9.51595 26.0079 6.61963 22.0784 6.5 18.4531L7.99819 18.4062C8.05702 20.1445 8.8904 22.0351 9.64537 23.4033C10.669 15.4051 16.6654 11.6689 16.944 11.5L17.75 12.7121C17.6814 12.7535 10.9985 16.9462 10.9985 25.7542L10.9984 28Z" fill="#28293D"/>
<path d="M8.01407 34C6.75088 34 6.20974 33.2597 5.99587 32.7957C5.34326 31.3808 6.07813 29.2178 7.16402 27.9478C7.8404 27.1572 8.58627 26.7648 9.35588 26.7957C9.21146 25.9182 9.03597 25.145 8.90252 24.6579L10.2462 24.25C10.4143 24.8724 11.8549 30.3891 10.2462 32.8227C9.78548 33.5225 9.10179 33.9265 8.27551 33.9883C8.18593 33.996 8.09818 33.9999 8.0141 33.9999L8.01407 34ZM9.25901 28.2727C8.82392 28.2727 8.38883 28.723 8.20239 28.9396C7.39253 29.8887 6.93002 31.4466 7.25363 32.1483C7.30848 32.2643 7.44192 32.5697 8.17866 32.5156C8.58449 32.4847 8.88064 32.3146 9.10186 31.9783C9.64294 31.1626 9.67954 29.6316 9.53329 28.1374L9.47296 28.3133C9.39983 28.2843 9.33037 28.2727 9.25907 28.2727L9.25901 28.2727Z" fill="#28293D"/>
<path d="M20.7481 43.75H1.25V38.5H20.75L20.7481 43.75ZM2.70617 42.241H19.2924V40.011H2.70617V42.241Z" fill="#28293D"/>
<path d="M10.25 4L7.25 5.5H10.25V4Z" fill="#28293D"/>
<path d="M14.3163 36.25L13.25 35.213C13.6296 34.8319 13.9778 34.4237 14.2811 34L15.5 34.859C15.1478 35.3446 14.7467 35.8147 14.3163 36.25Z" fill="#28293D"/>
<path d="M16.9444 32.5L15.5836 31.9933C17.5476 26.9415 14.7805 21.1743 14.75 21.1166L16.0632 20.5C16.1869 20.7571 19.1311 26.8671 16.9444 32.4998V32.5Z" fill="#28293D"/>
</svg>
