<svg width="16" height="16" viewBox="0 0 16 16" fill="none" xmlns="http://www.w3.org/2000/svg">
<path d="M15.7533 14.5625C16.0822 14.8915 16.0822 15.4244 15.7533 15.7533C15.4243 16.0822 14.8914 16.0822 14.5625 15.7533L10.4424 11.6349C10.2796 11.4704 9.98849 11.4474 9.80428 11.5757C9.80428 11.5757 9.68915 11.6628 9.44573 11.8026C8.52303 12.3306 7.45394 12.6316 6.31579 12.6316C2.82728 12.6316 0 9.80433 0 6.31581C0 2.82729 2.82728 0 6.31579 0C9.80429 0 12.6316 2.82729 12.6316 6.31581C12.6316 7.46221 12.3257 8.53784 11.7928 9.46386C11.6546 9.70235 11.5789 9.79939 11.5789 9.79939C11.4457 9.99018 11.4704 10.2796 11.6349 10.4425L15.7533 14.5625ZM6.31581 10.9474C8.87337 10.9474 10.9474 8.87336 10.9474 6.31579C10.9474 3.75823 8.87337 1.6842 6.31581 1.6842C3.75826 1.6842 1.68424 3.75823 1.68424 6.31579C1.68424 8.87336 3.75826 10.9474 6.31581 10.9474Z" fill="black"/>
</svg>
