<svg width="48" height="36" viewBox="0 0 48 36" fill="none" xmlns="http://www.w3.org/2000/svg">
<path d="M46.5442 6.65435C44.8698 4.98371 42.153 4.98371 40.4804 6.65435L25.3661 21.7667C25.2499 21.8848 25.173 22.0348 25.1449 22.196L24.1024 28.1696C24.0611 28.4265 24.1417 28.6871 24.3236 28.8727C24.4755 29.0227 24.6799 29.1071 24.8899 29.1071C24.933 29.1071 24.9818 29.1034 25.0268 29.094L30.9984 28.0515C31.1597 28.0234 31.3097 27.9446 31.4278 27.8321L46.5421 12.7198C48.2146 11.0454 48.2146 8.32668 46.5439 6.65403L46.5442 6.65435ZM30.4791 26.5201L25.8779 27.3226L26.6785 22.7195L39.0102 10.3893L42.8127 14.1899L30.4791 26.5201ZM45.4133 11.5859L43.9433 13.0559L40.1408 9.25523L41.6127 7.78335C42.659 6.7371 44.3652 6.7371 45.4115 7.78335C46.4596 8.83335 46.4596 10.5396 45.4133 11.5859H45.4133Z" fill="#28293D"/>
<path d="M35.0649 27.5082C34.6224 27.5082 34.2642 27.8682 34.2642 28.3088V31.8695C34.2642 33.1707 33.2067 34.232 31.9017 34.232L4.163 34.2301C2.86177 34.2301 1.80049 33.1726 1.80049 31.8676V4.13082C1.80049 2.82959 2.85985 1.76831 4.163 1.76831H31.8998C33.201 1.76831 34.2623 2.82767 34.2623 4.13082V7.83958C34.2623 8.28209 34.6223 8.64022 35.0629 8.64022C35.5036 8.64022 35.8636 8.2821 35.8636 7.83958L35.8617 4.13082C35.8617 1.94643 34.0842 0.168945 31.8998 0.168945H4.16304C1.97866 0.168945 0.201172 1.94643 0.201172 4.13082V31.8715C0.201172 34.0577 1.97866 35.8333 4.16304 35.8333H31.9037C34.0899 35.8333 35.8656 34.0558 35.8656 31.8715V28.3108C35.8674 27.8683 35.5074 27.5083 35.0649 27.5083L35.0649 27.5082Z" fill="#28293D"/>
<path d="M30.7025 8.34947C30.7025 7.90697 30.3425 7.54883 29.9018 7.54883L11.0038 7.5507C10.5613 7.5507 10.2031 7.90883 10.2031 8.35134C10.2031 8.79384 10.5612 9.15199 11.0038 9.15199H29.9018C30.3425 9.15011 30.7025 8.79198 30.7025 8.34947V8.34947Z" fill="#28293D"/>
<path d="M27.0218 14.807C27.0218 14.3645 26.6618 14.0063 26.2212 14.0063H11.0038C10.5613 14.0063 10.2031 14.3645 10.2031 14.807C10.2031 15.2495 10.5612 15.6076 11.0038 15.6076H26.2193C26.6618 15.6058 27.0218 15.2476 27.0218 14.807H27.0218Z" fill="#28293D"/>
<path d="M20.0993 20.4619H11.0038C10.5613 20.4619 10.2031 20.8219 10.2031 21.2626C10.2031 21.7032 10.5612 22.0632 11.0038 22.0632H20.0993C20.5418 22.0632 20.8999 21.7032 20.8999 21.2626C20.8999 20.8219 20.5418 20.4619 20.0993 20.4619Z" fill="#28293D"/>
<path d="M20.0993 26.9194H11.0038C10.5613 26.9194 10.2031 27.2794 10.2031 27.7201C10.2031 28.1607 10.5612 28.5207 11.0038 28.5207H20.0993C20.5418 28.5207 20.8999 28.1607 20.8999 27.7201C20.8999 27.2794 20.5418 26.9194 20.0993 26.9194Z" fill="#28293D"/>
<path d="M6.19757 6.90381C5.3988 6.90381 4.75195 7.55258 4.75195 8.34942C4.75195 9.14819 5.40072 9.79504 6.19757 9.79504C6.99634 9.79504 7.64318 9.14627 7.64318 8.34942C7.64318 7.55253 6.99442 6.90381 6.19757 6.90381Z" fill="#28293D"/>
<path d="M6.19757 13.3594C5.3988 13.3594 4.75195 14.0081 4.75195 14.805C4.75195 15.6038 5.40072 16.2506 6.19757 16.2506C6.99634 16.2506 7.64318 15.6018 7.64318 14.805C7.64318 14.0081 6.99442 13.3594 6.19757 13.3594Z" fill="#28293D"/>
<path d="M6.19757 19.8184C5.3988 19.8184 4.75195 20.4671 4.75195 21.264C4.75195 22.0627 5.40072 22.7096 6.19757 22.7096C6.99634 22.7096 7.64318 22.0608 7.64318 21.264C7.64318 20.4652 6.99442 19.8184 6.19757 19.8184Z" fill="#28293D"/>
<path d="M6.19757 26.2739C5.3988 26.2739 4.75195 26.9227 4.75195 27.7195C4.75195 28.5183 5.40072 29.1652 6.19757 29.1652C6.99634 29.1652 7.64318 28.5164 7.64318 27.7195C7.64318 26.9208 6.99442 26.2739 6.19757 26.2739Z" fill="#28293D"/>
</svg>
