<svg width="24" height="24" viewBox="0 0 24 24" fill="none" xmlns="http://www.w3.org/2000/svg">
<path opacity="0.1" fill-rule="evenodd" clip-rule="evenodd" d="M0 12C0 5.37258 5.37258 0 12 0C18.6274 0 24 5.37258 24 12C24 18.6274 18.6274 24 12 24C5.37258 24 0 18.6274 0 12Z" fill="#28293D"/>
<path fill-rule="evenodd" clip-rule="evenodd" d="M11.8267 9.66016L11.8527 10.0927L11.4192 10.0397C9.8411 9.8367 8.46247 9.14818 7.29193 7.99183L6.71966 7.41807L6.57226 7.84177C6.26012 8.78627 6.45955 9.78374 7.10984 10.4546C7.45667 10.8253 7.37864 10.8783 6.78036 10.6576C6.57226 10.587 6.39018 10.534 6.37284 10.5605C6.31214 10.6223 6.52024 11.4256 6.68498 11.7434C6.91042 12.1847 7.36996 12.6172 7.87286 12.8732L8.29773 13.0762L7.79483 13.0851C7.30927 13.0851 7.29193 13.0939 7.34395 13.2793C7.51737 13.853 8.20235 14.4621 8.96537 14.7269L9.50295 14.9123L9.03473 15.1948C8.34108 15.6008 7.52604 15.8303 6.71099 15.848C6.32081 15.8568 6 15.8921 6 15.9186C6 16.0068 7.05782 16.5012 7.67344 16.6954C9.52029 17.2691 11.714 17.022 13.3614 16.0422C14.5319 15.3448 15.7025 13.959 16.2487 12.6172C16.5435 11.9022 16.8383 10.5958 16.8383 9.96911C16.8383 9.56306 16.8643 9.5101 17.3499 9.0246C17.636 8.74214 17.9048 8.43319 17.9568 8.34492C18.0435 8.1772 18.0349 8.1772 17.5927 8.32726C16.8557 8.59208 16.7516 8.55677 17.1158 8.15955C17.3846 7.87708 17.7054 7.36511 17.7054 7.21505C17.7054 7.18857 17.5753 7.2327 17.4279 7.31215C17.2719 7.40042 16.925 7.53282 16.6649 7.61227L16.1967 7.76233L15.7718 7.47103C15.5377 7.31215 15.2082 7.1356 15.0348 7.08264C14.5926 6.95906 13.9163 6.97672 13.5175 7.11795C12.4336 7.51517 11.7486 8.53911 11.8267 9.66016Z" fill="#28293D"/>
</svg>
