<svg width="16" height="20" viewBox="0 0 16 20" fill="none" xmlns="http://www.w3.org/2000/svg">
<path d="M8.00006 10C5.87922 10.0017 3.84579 10.8494 2.34583 12.3548C0.845831 13.861 0.00256002 15.9028 0 18.0335C0 18.3146 0.175001 18.5665 0.43834 18.6628C2.86247 19.5473 5.42078 20 8 20C10.5792 20 13.1375 19.5464 15.5617 18.6611C15.825 18.5649 16 18.313 16 18.0318C15.9975 15.9021 15.1533 13.8602 13.6542 12.3548C12.1542 10.8485 10.1209 10.0018 7.99994 10L8.00006 10ZM1.34913 17.5647C1.50663 15.2886 2.80747 13.2492 4.80089 12.1547C6.79425 11.0593 9.20583 11.0593 11.1992 12.1547C13.1926 13.2492 14.4933 15.2886 14.651 17.5647C10.3359 19.0242 5.66426 19.0242 1.34913 17.5639V17.5647Z" fill="black"/>
<path d="M8.5 9C9.69338 9 10.8384 8.52577 11.682 7.682C12.5258 6.83824 13 5.69331 13 4.5C13 3.30669 12.5258 2.16163 11.682 1.318C10.8382 0.474232 9.69331 0 8.5 0C7.30669 0 6.16163 0.474232 5.318 1.318C4.47423 2.16176 4 3.30669 4 4.5C4.00173 5.69338 4.47596 6.8366 5.31972 7.68023C6.16349 8.524 7.30669 8.99823 8.49996 8.99996L8.5 9ZM8.5 1.3845C9.76002 1.3845 10.8962 2.14346 11.3783 3.30742C11.8603 4.47224 11.5938 5.81195 10.7033 6.70321C9.8119 7.5937 8.47233 7.86026 7.30746 7.37823C6.1435 6.8962 5.38455 5.75993 5.38455 4.49996C5.38628 2.78041 6.78044 1.38619 8.49987 1.38464L8.5 1.3845Z" fill="black"/>
</svg>
