<svg width="24" height="24" viewBox="0 0 24 24" fill="none" xmlns="http://www.w3.org/2000/svg">
<path opacity="0.1" fill-rule="evenodd" clip-rule="evenodd" d="M0 12C0 5.37258 5.37258 0 12 0C18.6274 0 24 5.37258 24 12C24 18.6274 18.6274 24 12 24C5.37258 24 0 18.6274 0 12Z" fill="#28293D"/>
<path fill-rule="evenodd" clip-rule="evenodd" d="M11.9996 5.6001C8.46217 5.6001 5.59961 8.46138 5.59961 12.0001C5.59961 13.3345 6.00649 14.5695 6.72961 15.6302C6.78398 15.7108 6.79898 15.812 6.76961 15.9052L6.11961 18.0802L8.24953 17.3452C8.34203 17.3146 8.44265 17.3271 8.52454 17.3802C9.52204 18.0277 10.7164 18.4002 11.9996 18.4002C15.5389 18.4002 18.3996 15.5396 18.3996 12.0002C18.3996 8.46086 15.5389 5.60022 11.9996 5.60022L11.9996 5.6001ZM9.37961 8.39018L10.5446 10.3151L10.0596 10.7951C9.95836 10.8976 9.93773 11.0551 10.0096 11.1801C10.7496 12.462 11.6264 13.4588 12.8546 14.0001C12.9752 14.0533 13.1158 14.0276 13.2096 13.9351L13.7246 13.4201L15.6046 14.5951C15.3965 15.0639 15.1252 15.3426 14.8146 15.5051C14.4552 15.6933 14.0158 15.7289 13.5146 15.6251C12.5121 15.417 11.3015 14.6295 10.3146 13.6202C9.32771 12.6108 8.56403 11.3834 8.36963 10.3851C8.27212 9.88575 8.31525 9.45575 8.49963 9.11513C8.65838 8.82139 8.92775 8.57014 9.37963 8.39014L9.37961 8.39018Z" fill="#1C1C28"/>
</svg>
