<svg width="13" height="9" viewBox="0 0 13 9" fill="none" xmlns="http://www.w3.org/2000/svg">
<path fill-rule="evenodd" clip-rule="evenodd" d="M11.5789 0.268694C12.1383 0.41654 12.5788 0.852169 12.7283 1.40538C13 2.40801 13 4.5 13 4.5C13 4.5 13 6.59192 12.7283 7.59462C12.5788 8.14783 12.1383 8.58346 11.5789 8.73138C10.5652 9 6.5 9 6.5 9C6.5 9 2.43477 9 1.42099 8.73138C0.861619 8.58346 0.421097 8.14783 0.271597 7.59462C0 6.59192 0 4.5 0 4.5C0 4.5 0 2.40801 0.271597 1.40538C0.421097 0.852169 0.861619 0.41654 1.42099 0.268694C2.43477 0 6.5 0 6.5 0C6.5 0 10.5652 0 11.5789 0.268694ZM5.28126 2.73909V6.65213L8.53126 4.69569L5.28126 2.73909Z" fill="white"/>
</svg>
