<svg width="14" height="8" viewBox="0 0 14 8" fill="none" xmlns="http://www.w3.org/2000/svg">
<path d="M7 7.59766C10.5508 7.59766 13.0029 4.72803 13.0029 3.83154C13.0029 2.93066 10.5464 0.0654297 7 0.0654297C3.49756 0.0654297 0.992676 2.93066 0.992676 3.83154C0.992676 4.72803 3.49316 7.59766 7 7.59766ZM7 6.90332C4.104 6.90332 1.76172 4.45117 1.76172 3.83154C1.76172 3.30859 4.104 0.759766 7 0.759766C9.88281 0.759766 12.2339 3.30859 12.2339 3.83154C12.2339 4.45117 9.88281 6.90332 7 6.90332ZM7 6.29248C8.3667 6.29248 9.46533 5.17188 9.46533 3.83154C9.46533 2.45605 8.3667 1.37061 7 1.37061C5.62451 1.37061 4.52148 2.45605 4.52588 3.83154C4.53467 5.17188 5.62451 6.29248 7 6.29248ZM7 4.64893C6.54297 4.64893 6.17383 4.27979 6.17383 3.83154C6.17383 3.37891 6.54297 3.01416 7 3.01416C7.45264 3.01416 7.82178 3.37891 7.82178 3.83154C7.82178 4.27979 7.45264 4.64893 7 4.64893Z" fill="white"/>
</svg>
