<svg width="24" height="24" viewBox="0 0 24 24" fill="none" xmlns="http://www.w3.org/2000/svg">
<path opacity="0.1" fill-rule="evenodd" clip-rule="evenodd" d="M0 12C0 5.37258 5.37258 0 12 0C18.6274 0 24 5.37258 24 12C24 18.6274 18.6274 24 12 24C5.37258 24 0 18.6274 0 12Z" fill="#28293D"/>
<path d="M15.5413 12.8155L15.9041 10.301H13.6347V8.6699C13.6347 7.9818 13.9511 7.31068 14.9676 7.31068H16V5.1699C16 5.1699 15.0635 5 14.1685 5C12.2986 5 11.0776 6.20461 11.0776 8.38447V10.301H9V12.8155H11.0776V18.8947C11.4947 18.9643 11.9215 19 12.3562 19C12.7909 19 13.2176 18.9643 13.6347 18.8947V12.8155H15.5413Z" fill="#28293D"/>
</svg>
