<svg width="24" height="24" viewBox="0 0 24 24" fill="none" xmlns="http://www.w3.org/2000/svg">
<path opacity="0.1" fill-rule="evenodd" clip-rule="evenodd" d="M0 12C0 5.37258 5.37258 0 12 0C18.6274 0 24 5.37258 24 12C24 18.6274 18.6274 24 12 24C5.37258 24 0 18.6274 0 12Z" fill="#28293D"/>
<path d="M18.1531 7.84C17.9337 7.62563 17.64 7.50374 17.3331 7.5H6.66688C6.37563 7.50312 6.09626 7.61188 5.88 7.80688C5.63813 8.0275 5.50062 8.33938 5.5 8.66688V15.3331C5.50375 15.9762 6.02374 16.4962 6.66688 16.5H17.3331C17.9762 16.4963 18.4962 15.9763 18.5 15.3331V8.66688C18.4994 8.35626 18.3744 8.05813 18.1531 7.84ZM16.8531 8.50688C15.8331 9.56 13.72 11.5069 12 11.5069C10.28 11.5069 8.16688 9.55312 7.14688 8.5L16.8531 8.50688ZM17.3331 15.5H6.66688C6.57438 15.5 6.5 15.4256 6.5 15.3331V9.27312C7.67312 10.4731 9.95312 12.5 12 12.5C14.0469 12.5 16.3269 10.5 17.5 9.27312V15.3331C17.5 15.3775 17.4825 15.42 17.4513 15.4512C17.42 15.4825 17.3775 15.5 17.3331 15.5L17.3331 15.5Z" fill="#1C1C28"/>
</svg>
