<svg width="24" height="24" viewBox="0 0 24 24" fill="none" xmlns="http://www.w3.org/2000/svg">
<path opacity="0.1" fill-rule="evenodd" clip-rule="evenodd" d="M0 12C0 5.37258 5.37258 0 12 0C18.6274 0 24 5.37258 24 12C24 18.6274 18.6274 24 12 24C5.37258 24 0 18.6274 0 12Z" fill="#28293D"/>
<path fill-rule="evenodd" clip-rule="evenodd" d="M15.7688 6.09365C15.2875 6.3124 9.86243 8.84997 5.44375 10.9061C5.09375 11.0811 4.875 11.4311 4.875 11.7811C4.875 12.1311 5.1375 12.3936 5.44375 12.4374C5.70625 12.4811 8.33125 12.8749 8.33125 12.8749L9.075 17.2499L9.46875 15.3249L8.9 12.4374L14.2375 8.4999L9.8625 13.3124L11.3938 15.0624C11.4813 15.1499 13.3625 17.3374 13.4938 17.4687C13.7126 17.6875 14.0626 18.125 14.2376 18.125C14.5438 18.125 14.8501 17.6875 14.9813 17.0312C15.1126 16.4187 15.9876 12.1749 17.0813 6.53122C17.2126 5.91872 16.6438 5.65622 15.7688 6.09372L15.7688 6.09365Z" fill="#1C1C28"/>
</svg>
