<svg width="44" height="44" viewBox="0 0 44 44" fill="none" xmlns="http://www.w3.org/2000/svg">
<path d="M42.8711 13.5703C43.4336 13.5703 43.7383 13.2422 43.7383 12.6797V6.28125C43.7383 2.20312 41.582 0 37.4336 0H31.0352C30.4727 0 30.1445 0.304688 30.1445 0.867188C30.1445 1.42969 30.4727 1.73438 31.0352 1.73438H37.3633C40.3164 1.73438 42.0039 3.32812 42.0039 6.375V12.6797C42.0039 13.2422 42.3086 13.5703 42.8711 13.5703ZM1.12891 13.5703C1.69141 13.5703 1.99609 13.2422 1.99609 12.6797V6.375C1.99609 3.32812 3.58984 1.73438 6.63672 1.73438H12.9648C13.5273 1.73438 13.8555 1.42969 13.8555 0.867188C13.8555 0.304688 13.5273 0 12.9648 0H6.58984C2.44141 0 0.261719 2.15625 0.261719 6.28125V12.6797C0.261719 13.2422 0.566406 13.5703 1.12891 13.5703ZM20.0898 24.8906H20.3008C22.1992 24.8906 23.1602 23.9531 23.1602 22.0312V14.8359C23.1602 14.2969 22.9023 14.0391 22.3633 14.0391C21.8477 14.0391 21.5664 14.2969 21.5664 14.8359V22.2422C21.5664 22.875 21.0508 23.2734 20.5352 23.2734H19.7383C19.293 23.2734 18.9648 23.6016 18.9648 24.0469C18.9648 24.6094 19.3164 24.8906 20.0898 24.8906ZM13.5742 19.5C14.2773 19.5 14.7227 19.0547 14.7227 18.3516V15.2344C14.7227 14.5078 14.2773 14.0625 13.5742 14.0625C12.8945 14.0625 12.4492 14.5312 12.4492 15.2344V18.3516C12.4492 19.0547 12.8945 19.5 13.5742 19.5ZM30.2148 19.5C30.8945 19.5 31.3398 19.0547 31.3398 18.3516V15.2344C31.3398 14.5312 30.8945 14.0625 30.2148 14.0625C29.5117 14.0625 29.043 14.5078 29.043 15.2344V18.3516C29.043 19.0547 29.5117 19.5 30.2148 19.5ZM21.8008 32.0625C24.3789 32.0625 26.957 30.9844 28.8555 29.0859C28.9961 28.9688 29.1367 28.7578 29.1367 28.4531C29.1367 27.9844 28.7852 27.6797 28.3633 27.6797C28.1055 27.6797 27.8945 27.75 27.5898 28.0781C26.1836 29.4844 24.0039 30.4922 21.8008 30.4922C19.5977 30.4922 17.4414 29.4844 16.0117 28.0781C15.7305 27.7734 15.5195 27.6797 15.2383 27.6797C14.8164 27.6797 14.4648 27.9844 14.4648 28.4531C14.4648 28.7344 14.6055 28.9453 14.7461 29.0859C16.5977 31.0078 19.2227 32.0625 21.8008 32.0625ZM6.58984 43.4766H12.9648C13.5273 43.4766 13.8555 43.1719 13.8555 42.6094C13.8555 42.0469 13.5273 41.7422 12.9648 41.7422H6.63672C3.58984 41.7422 1.99609 40.1484 1.99609 37.0781V30.7969C1.99609 30.2344 1.69141 29.8828 1.12891 29.8828C0.566406 29.8828 0.261719 30.2344 0.261719 30.7969V37.1719C0.261719 41.3203 2.44141 43.4766 6.58984 43.4766ZM31.0352 43.4766H37.4336C41.582 43.4766 43.7383 41.25 43.7383 37.1719V30.7969C43.7383 30.2344 43.4336 29.8828 42.8711 29.8828C42.3086 29.8828 42.0039 30.2344 42.0039 30.7969V37.0781C42.0039 40.1484 40.3164 41.7422 37.3633 41.7422H31.0352C30.4727 41.7422 30.1445 42.0469 30.1445 42.6094C30.1445 43.1719 30.4727 43.4766 31.0352 43.4766Z" fill="white"/>
</svg>
