<svg width="13" height="13" viewBox="0 0 13 13" fill="none" xmlns="http://www.w3.org/2000/svg">
<path fill-rule="evenodd" clip-rule="evenodd" d="M6.50061 0C4.7353 0 4.51376 0.00771875 3.82041 0.0392708C3.12843 0.0709583 2.65609 0.18051 2.24279 0.34125C1.81528 0.507271 1.45263 0.729354 1.09133 1.09078C0.729768 1.45207 0.507682 1.81472 0.341118 2.24209C0.179971 2.65552 0.070282 3.12799 0.0391358 3.8197C0.00812509 4.51303 0 4.73471 0 6.5C0 8.26529 0.00785425 8.48616 0.0392712 9.17949C0.0710945 9.87147 0.180648 10.3438 0.341254 10.7571C0.507412 11.1846 0.729497 11.5473 1.09093 11.9085C1.45209 12.2701 1.81474 12.4927 2.24198 12.6588C2.65555 12.8195 3.12802 12.929 3.81987 12.9607C4.51321 12.9923 4.73462 13 6.4998 13C8.26524 13 8.48611 12.9923 9.17945 12.9607C9.87144 12.929 10.3443 12.8195 10.7579 12.6588C11.1853 12.4927 11.5474 12.2701 11.9085 11.9085C12.2701 11.5473 12.4922 11.1846 12.6587 10.7572C12.8185 10.3438 12.9282 9.87133 12.9607 9.17963C12.9919 8.48629 13 8.26529 13 6.5C13 4.73471 12.9919 4.51317 12.9607 3.81983C12.9282 3.12785 12.8185 2.65552 12.6587 2.24223C12.4922 1.81472 12.2701 1.45207 11.9085 1.09078C11.547 0.729219 11.1854 0.507135 10.7575 0.34125C10.3431 0.18051 9.87049 0.0709583 9.1785 0.0392708C8.48516 0.00771875 8.26443 0 6.49858 0H6.50061ZM5.91747 1.17134C6.09053 1.17107 6.28364 1.17134 6.50058 1.17134C8.2361 1.17134 8.4418 1.17757 9.12715 1.20871C9.76091 1.23769 10.1049 1.34359 10.334 1.43255C10.6373 1.55037 10.8536 1.6912 11.081 1.9187C11.3085 2.1462 11.4493 2.36287 11.5674 2.6662C11.6564 2.89506 11.7624 3.23901 11.7912 3.87276C11.8224 4.55797 11.8291 4.76381 11.8291 6.49849C11.8291 8.23318 11.8224 8.43901 11.7912 9.12422C11.7622 9.75797 11.6564 10.1019 11.5674 10.3308C11.4496 10.6341 11.3085 10.8501 11.081 11.0775C10.8535 11.305 10.6375 11.4458 10.334 11.5636C10.1051 11.653 9.76091 11.7586 9.12715 11.7876C8.44193 11.8187 8.2361 11.8255 6.50058 11.8255C4.76493 11.8255 4.55923 11.8187 3.87401 11.7876C3.24026 11.7583 2.89629 11.6525 2.66703 11.5635C2.36369 11.4457 2.14703 11.3048 1.91952 11.0773C1.69202 10.8498 1.55119 10.6337 1.4331 10.3302C1.34413 10.1014 1.2381 9.75743 1.20926 9.12368C1.17811 8.43847 1.17188 8.23264 1.17188 6.49687C1.17188 4.7611 1.17811 4.55635 1.20926 3.87114C1.23823 3.23739 1.34413 2.89343 1.4331 2.6643C1.55092 2.36097 1.69202 2.1443 1.91952 1.9168C2.14703 1.6893 2.36369 1.54847 2.66703 1.43039C2.89616 1.34101 3.24026 1.23539 3.87401 1.20627C4.47364 1.17919 4.70602 1.17107 5.91747 1.16971V1.17134ZM9.97027 2.25061C9.53964 2.25061 9.19026 2.59958 9.19026 3.03034C9.19026 3.46096 9.53964 3.81034 9.97027 3.81034C10.4009 3.81034 10.7503 3.46096 10.7503 3.03034C10.7503 2.59971 10.4009 2.25061 9.97027 2.25061ZM6.50062 3.16196C4.65717 3.16196 3.16256 4.65656 3.16256 6.49998C3.16256 8.34341 4.65717 9.83733 6.50062 9.83733C8.34407 9.83733 9.83813 8.34341 9.83813 6.49998C9.83813 4.65656 8.34407 3.16196 6.50062 3.16196ZM6.50059 4.33332C7.69715 4.33332 8.66728 5.30331 8.66728 6.49998C8.66728 7.69652 7.69715 8.66665 6.50059 8.66665C5.30391 8.66665 4.33391 7.69652 4.33391 6.49998C4.33391 5.30331 5.30391 4.33332 6.50059 4.33332Z" fill="white"/>
</svg>
