<svg width="18" height="28" viewBox="0 0 18 28" fill="none" xmlns="http://www.w3.org/2000/svg">
<g filter="url(#filter0_f_214_256)">
<ellipse cx="8.5" cy="24.4199" rx="2.5" ry="1.5" fill="black" fill-opacity="0.12"/>
</g>
<mask id="path-2-outside-1_214_256" maskUnits="userSpaceOnUse" x="0" y="0" width="18" height="26" fill="black">
<rect fill="white" width="18" height="26"/>
<path fill-rule="evenodd" clip-rule="evenodd" d="M8.57379 24.0223C8.90789 24.0217 9.17854 23.7507 9.17854 23.4165C9.17854 19.1928 11.5414 16.605 13.3105 14.6674C13.8156 14.1143 14.2723 13.6141 14.6118 13.144C15.5748 11.8737 16.1462 10.2902 16.1462 8.57312C16.1462 4.3906 12.7556 1 8.57312 1C4.3906 1 1 4.3906 1 8.57312C1 10.2931 1.5734 11.8792 2.53948 13.1506C2.87846 13.6188 3.33323 14.1169 3.83595 14.6674C5.60506 16.605 7.96794 19.1928 7.96794 23.4165C7.96794 23.7507 8.2386 24.0217 8.57269 24.0223"/>
</mask>
<path fill-rule="evenodd" clip-rule="evenodd" d="M8.57379 24.0223C8.90789 24.0217 9.17854 23.7507 9.17854 23.4165C9.17854 19.1928 11.5414 16.605 13.3105 14.6674C13.8156 14.1143 14.2723 13.6141 14.6118 13.144C15.5748 11.8737 16.1462 10.2902 16.1462 8.57312C16.1462 4.3906 12.7556 1 8.57312 1C4.3906 1 1 4.3906 1 8.57312C1 10.2931 1.5734 11.8792 2.53948 13.1506C2.87846 13.6188 3.33323 14.1169 3.83595 14.6674C5.60506 16.605 7.96794 19.1928 7.96794 23.4165C7.96794 23.7507 8.2386 24.0217 8.57269 24.0223" fill="#3F64FD"/>
<path d="M8.57269 24.5223H8.57379V23.5223H8.57269V24.5223ZM13.3105 14.6674L12.5721 13.9932L13.3105 14.6674ZM14.6118 13.144L13.8149 12.5399L13.8079 12.5492L13.8011 12.5586L14.6118 13.144ZM2.53948 13.1506L3.34945 12.5642L3.34268 12.5548L3.3357 12.5456L2.53948 13.1506ZM3.83595 14.6674L3.09748 15.3417L3.09748 15.3417L3.83595 14.6674ZM8.57558 25.0223C9.46116 25.0207 10.1785 24.3024 10.1785 23.4165H8.17854C8.17854 23.199 8.35462 23.0227 8.57201 23.0223L8.57558 25.0223ZM10.1785 23.4165C10.1785 19.6148 12.2758 17.2838 14.049 15.3417L12.5721 13.9932C10.8071 15.9262 8.17854 18.7707 8.17854 23.4165H10.1785ZM14.049 15.3417C14.5422 14.8016 15.0424 14.2558 15.4225 13.7295L13.8011 12.5586C13.5022 12.9725 13.089 13.427 12.5721 13.9932L14.049 15.3417ZM15.4087 13.7482C16.4989 12.3101 17.1462 10.5158 17.1462 8.57312H15.1462C15.1462 10.0646 14.6507 11.4374 13.8149 12.5399L15.4087 13.7482ZM17.1462 8.57312C17.1462 3.83832 13.3079 0 8.57312 0V2C12.2034 2 15.1462 4.94289 15.1462 8.57312H17.1462ZM8.57312 0C3.83832 0 0 3.83832 0 8.57312H2C2 4.94289 4.94289 2 8.57312 2V0ZM0 8.57312C0 10.5191 0.649578 12.3163 1.74325 13.7556L3.3357 12.5456C2.49723 11.4421 2 10.0671 2 8.57312H0ZM1.72951 13.7371C2.10869 14.2608 2.60646 14.804 3.09748 15.3417L4.57442 13.9932C4.06 13.4298 3.64823 12.9768 3.34945 12.5642L1.72951 13.7371ZM3.09748 15.3417C4.87071 17.2838 6.96794 19.6148 6.96794 23.4165H8.96794C8.96794 18.7707 6.33942 15.9262 4.57442 13.9932L3.09748 15.3417ZM6.96794 23.4165C6.96794 24.3024 7.68533 25.0207 8.5709 25.0223L8.57448 23.0223C8.79187 23.0227 8.96794 23.199 8.96794 23.4165H6.96794Z" fill="url(#paint0_linear_214_256)" mask="url(#path-2-outside-1_214_256)"/>
<circle cx="8.5" cy="8.41992" r="2.5" fill="white"/>
<defs>
<filter id="filter0_f_214_256" x="4" y="20.9199" width="9" height="7" filterUnits="userSpaceOnUse" color-interpolation-filters="sRGB">
<feFlood flood-opacity="0" result="BackgroundImageFix"/>
<feBlend mode="normal" in="SourceGraphic" in2="BackgroundImageFix" result="shape"/>
<feGaussianBlur stdDeviation="1" result="effect1_foregroundBlur_214_256"/>
</filter>
<linearGradient id="paint0_linear_214_256" x1="8.57312" y1="1" x2="8.57312" y2="24.0223" gradientUnits="userSpaceOnUse">
<stop stop-color="white"/>
<stop offset="1" stop-color="white" stop-opacity="0.35"/>
</linearGradient>
</defs>
</svg>
