<svg width="10" height="13" viewBox="0 0 10 13" fill="none" xmlns="http://www.w3.org/2000/svg">
<path d="M9.8803 1.46343C9.80836 1.41465 9.73641 1.41465 9.66448 1.43904C9.06496 1.70734 8.44143 1.51221 8.0818 1.02441C7.91392 0.804901 7.818 0.512215 7.818 0.243912C7.818 0.170741 7.79402 0.12196 7.74605 0.0731714C7.69809 0.0243827 7.65013 0 7.57818 0H5.13202C4.98813 0 4.89221 0.0975618 4.89221 0.243905V8.90256V8.95134C4.84425 9.39037 4.50851 9.70745 4.07685 9.70745C3.6212 9.70745 3.2375 9.3172 3.2375 8.85378C3.2375 8.41475 3.54925 8.07328 3.98092 8.0245C4.10083 8.00011 4.19675 7.90255 4.19675 7.7806V4.9513C4.19675 4.80496 4.10082 4.7074 3.95693 4.7074H3.90897C1.7027 4.80496 0 6.60993 0 8.8537C0 11.1465 1.82257 13 4.07672 13C6.18707 13 7.9616 11.3414 8.12951 9.21944C8.15349 9.19505 8.15349 9.14627 8.15349 9.12188V4.41456C8.68107 4.53651 9.23263 4.5853 9.80815 4.48773C9.92806 4.46334 10 4.36578 10 4.24382V1.65851C10 1.58534 9.95204 1.51217 9.88009 1.46339L9.8803 1.46343ZM9.52058 4.04874C8.969 4.09752 8.4654 4.04874 7.96184 3.878C7.88989 3.85361 7.81795 3.878 7.74601 3.90239C7.67407 3.95117 7.65009 4.02434 7.65009 4.09751V9.02431C7.65009 9.0487 7.65009 9.07309 7.62611 9.09748C7.5062 11 5.92341 12.5121 4.05295 12.5121C2.06247 12.5121 0.455696 10.8779 0.455696 8.8535C0.455696 6.95096 1.84661 5.38997 3.69319 5.21936V7.58519C3.14162 7.75593 2.73395 8.26812 2.73395 8.8535C2.73395 9.58521 3.33347 10.195 4.05292 10.195C4.70042 10.195 5.25198 9.70717 5.3479 9.07302C5.37189 9.04863 5.37189 8.99985 5.37189 8.97546V0.487575H7.36236C7.41032 0.804643 7.53024 1.07295 7.6981 1.31685C8.10577 1.87784 8.82522 2.17052 9.52067 1.99978L9.52058 4.04874Z" fill="white"/>
</svg>
