<svg width="32" height="48" viewBox="0 0 32 48" fill="none" xmlns="http://www.w3.org/2000/svg">
<path d="M16 0C7.1456 0 0 7.6272 0 17.0667V30.9333C0 40.3728 7.1456 48 16 48C24.8544 48 32 40.3728 32 30.9333V17.0667C32 7.6272 24.8544 0 16 0ZM16 7.46667C17.4938 7.46667 18.6667 8.63957 18.6667 10.1333C18.6667 11.6271 17.4938 12.8 16 12.8C14.5062 12.8 13.3333 11.6271 13.3333 10.1333C13.3333 8.63957 14.5062 7.46667 16 7.46667ZM23.6789 26.8789C23.2519 27.306 22.6123 27.306 22.1852 26.8789L17.0643 21.7581L17.0664 39.9997C17.0664 40.5872 16.5872 41.0663 15.9997 41.0663C15.4122 41.0663 14.9331 40.5872 14.9331 39.9997V21.7602L9.81222 26.8811C9.38513 27.3082 8.74555 27.3082 8.31846 26.8811C7.89138 26.454 7.89138 25.8144 8.31846 25.3873L15.2518 18.454C15.6789 18.0269 16.3185 18.0269 16.7456 18.454L23.6789 25.3873C24.106 25.8123 24.106 26.454 23.6789 26.879L23.6789 26.8789Z" fill="#9DBFF9"/>
</svg>
