<svg width="12" height="10" viewBox="0 0 12 10" fill="none" xmlns="http://www.w3.org/2000/svg">
<path fill-rule="evenodd" clip-rule="evenodd" d="M5.82668 2.66016L5.8527 3.09268L5.41916 3.03972C3.8411 2.8367 2.46247 2.14818 1.29193 0.991834L0.719665 0.418072L0.572264 0.841773C0.26012 1.78627 0.459545 2.78374 1.10984 3.4546C1.45667 3.82533 1.37864 3.8783 0.78036 3.65762C0.572264 3.587 0.39018 3.53404 0.372838 3.56052C0.312144 3.62231 0.52024 4.42558 0.684982 4.74335C0.910419 5.18471 1.36996 5.61724 1.87286 5.87322L2.29773 6.07625L1.79483 6.08507C1.30927 6.08507 1.29193 6.0939 1.34395 6.27927C1.51737 6.85303 2.20235 7.4621 2.96537 7.72692L3.50295 7.91228L3.03473 8.19475C2.34108 8.6008 1.52604 8.8303 0.710994 8.84796C0.320814 8.85678 0 8.89209 0 8.91857C0 9.00685 1.05782 9.50116 1.67344 9.69536C3.52029 10.2691 5.71397 10.022 7.36139 9.04215C8.53193 8.34481 9.70247 6.95896 10.2487 5.61724C10.5435 4.90224 10.8383 3.59583 10.8383 2.96911C10.8383 2.56306 10.8643 2.5101 11.3499 2.0246C11.636 1.74214 11.9048 1.43319 11.9568 1.34492C12.0435 1.1772 12.0349 1.1772 11.5927 1.32726C10.8557 1.59208 10.7516 1.55677 11.1158 1.15955C11.3846 0.877081 11.7054 0.365109 11.7054 0.215048C11.7054 0.188567 11.5753 0.232702 11.4279 0.312146C11.2719 0.400417 10.925 0.532824 10.6649 0.612268L10.1967 0.762329L9.77184 0.471034C9.53773 0.312146 9.20824 0.135604 9.03483 0.0826416C8.59263 -0.0409379 7.91631 -0.0232837 7.51746 0.11795C6.43363 0.51517 5.74865 1.53911 5.82668 2.66016Z" fill="white"/>
</svg>
